<?xml version="1.0" standalone="no"?>
<!DOCTYPE svg PUBLIC "-//W3C//DTD SVG 20010904//EN"
 "http://www.w3.org/TR/2001/REC-SVG-20010904/DTD/svg10.dtd">
<svg version="1.0" xmlns="http://www.w3.org/2000/svg"
 width="200.000000pt" height="200.000000pt" viewBox="0 0 200.000000 200.000000"
 preserveAspectRatio="xMidYMid meet">

<g transform="translate(0.000000,200.000000) scale(0.100000,-0.100000)"
fill="#000000" stroke="none">
<path d="M796 1772 c-10 -16 -37 -183 -34 -210 2 -19 9 -27 23 -27 17 0 22 12
37 95 23 129 23 150 -1 150 -11 0 -22 -4 -25 -8z"/>
<path d="M497 1753 c-13 -12 -7 -38 31 -138 25 -67 44 -101 55 -103 32 -6 30
29 -8 131 -40 108 -57 132 -78 110z"/>
<path d="M1011 1574 c-70 -86 -82 -116 -49 -122 20 -4 160 165 156 188 -7 37
-38 18 -107 -66z"/>
<path d="M247 1573 c-17 -16 -1 -37 78 -103 51 -43 91 -70 102 -68 39 7 22 36
-65 106 -88 71 -102 79 -115 65z"/>
<path d="M1155 1372 c-80 -30 -100 -41 -100 -57 0 -31 25 -29 136 13 82 31
104 43 104 58 0 30 -31 27 -140 -14z"/>
<path d="M117 1287 c-10 -28 12 -38 118 -56 117 -20 135 -19 135 9 0 22 -7 24
-125 45 -110 18 -121 19 -128 2z"/>
<path d="M766 1145 c-9 -9 -12 -22 -8 -33 30 -75 416 -791 429 -796 26 -10 40
12 72 123 31 103 44 131 63 131 5 0 99 -73 209 -162 110 -90 206 -164 213
-166 18 -4 118 115 114 135 -2 8 -88 86 -193 172 -124 102 -191 164 -193 178
-3 18 12 30 92 73 96 52 114 73 84 97 -7 6 -197 65 -423 132 -226 67 -417 124
-426 127 -9 2 -24 -2 -33 -11z"/>
<path d="M255 1034 c-94 -37 -122 -55 -111 -73 12 -18 46 -12 146 27 75 30 95
42 95 57 0 31 -30 28 -130 -11z"/>
<path d="M392 820 c-72 -89 -84 -120 -45 -120 24 0 156 164 151 187 -7 38 -35
20 -106 -67z"/>
<path d="M637 823 c-3 -4 -13 -59 -23 -121 -13 -83 -15 -115 -7 -123 24 -24
41 -1 54 73 19 108 18 172 -3 176 -9 2 -18 -1 -21 -5z"/>
</g>
</svg>
